<?xml version="1.0" encoding="utf-8"?>
<!-- Generator: Adobe Illustrator 26.0.1, SVG Export Plug-In . SVG Version: 6.00 Build 0)  -->
<svg version="1.1" id="Camada_1" xmlns="http://www.w3.org/2000/svg" xmlns:xlink="http://www.w3.org/1999/xlink" x="0px" y="0px"
	 viewBox="0 0 511 265" enable-background="new 0 0 511 265" xml:space="preserve">
<g>
	<path fill="#FFFFFF" d="M143,78H22c-9.4,0-17-7.6-17-17V18C5,8.6,12.6,1,22,1h121c9.4,0,17,7.6,17,17v43C160,70.4,152.4,78,143,78z
		"/>
</g>
<g>
	<path fill="#E44D26" d="M21.9,58.9l-3.8-41.1h46l-3.8,41.1l-19.2,4.9L21.9,58.9z"/>
	<path fill="#F16529" d="M60.3,21.2H41.1v40.2l15.3-4.1L60.3,21.2z"/>
	<path fill="#FFFFFF" d="M28.6,41.7l-1.9-15.6h29.7l-1,4.9h-23l1,5.8h21.1l-1.9,15.6l-11.5,3.3l-11.5-3.3l-1-8.2h5.7l1,4.1l5.8,1.6
		l5.8-1.6l1-6.6H28.6z"/>
</g>
<g>
	<path d="M83.1,47.5v-5.3h-3v5.3h-3V34.7h3v5.1h3v-5.1H86v12.7H83.1z"/>
	<path d="M93.4,36.9v10.5h-3V36.9h-3l0.3-2.2h8.6L96,36.9H93.4z"/>
	<path d="M108.5,34.7l0.9,12.7h-2.7l-0.4-6.8l0.2-1.8h-0.2l-1.9,7.9l-2.7,0.2l-2-8h-0.2l0.2,1.8l-0.3,6.9h-2.4l0.7-12.7h3.3l1.8,7.4
		l0.3,1.8h0.1l0.2-1.8l1.6-7.4H108.5z"/>
	<path d="M114.1,34.7v10.5h4.3l-0.3,2.2h-6.9V34.7H114.1z"/>
	<path d="M128.1,40.1c1.2,0,2.2,0.3,2.9,0.9s1.1,1.6,1.1,2.8c0,0.9-0.2,1.7-0.7,2.4c-0.9,1.2-2.1,1.9-3.7,1.9c-1.6,0-2.9-0.4-4-1.1
		l0.8-1.9c1.1,0.5,1.8,0.7,2.1,0.8s0.6,0.1,0.8,0.1c0.6,0,1-0.2,1.3-0.5c0.3-0.3,0.5-0.8,0.5-1.5s-0.2-1.1-0.5-1.4
		c-0.3-0.3-0.8-0.5-1.3-0.5c-0.5,0-1.1,0.2-1.7,0.5l-1.2-0.8l0.6-6h6.6l-0.3,2.1h-3.8l-0.2,1.9l-0.5,0.6
		C127.2,40.2,127.6,40.1,128.1,40.1z"/>
</g>
<g>
	<path fill="#FFFFFF" d="M314,79H193c-9.4,0-17-7.6-17-17V19c0-9.4,7.6-17,17-17h121c9.4,0,17,7.6,17,17v43
		C331,71.4,323.4,79,314,79z"/>
</g>
<g>
	<polygon fill="#1572B6" points="196.3,59.6 192.1,18.2 238.1,18.2 233.9,59.6 215.1,64.2 	"/>
	<polygon fill="#33A9DC" points="215.1,60.7 230.4,57 233.9,21.6 215.1,21.6 	"/>
	<polygon fill="#FFFFFF" points="215.1,36.6 222.7,36.6 223.3,31.4 215.1,31.4 215.1,26.3 215.1,26.3 229.6,26.3 229.4,27.7 
		228,41.7 215.1,41.7 	"/>
	<polygon fill="#EBEBEB" points="215.2,49.8 215.1,49.8 208.7,48.2 208.3,44.2 205.2,44.2 202.5,44.2 203.3,52.2 215.1,55.1 
		215.2,55 	"/>
	<polygon fill="#FFFFFF" points="222.3,41.4 221.6,48.2 215.1,49.8 215.1,55.1 226.9,52.2 227,51.3 228,41.4 	"/>
	<polygon fill="#EBEBEB" points="215.1,26.3 215.1,29.5 215.1,31.4 215.1,31.4 201.3,31.4 201.3,31.4 201.2,31.4 201.1,30.2 
		200.9,27.7 200.7,26.3 	"/>
	<polygon fill="#EBEBEB" points="215.1,36.6 215.1,39.7 215.1,41.6 215.1,41.7 208.8,41.7 208.8,41.7 208.8,41.7 208.7,40.5 
		208.4,37.9 208.3,36.6 	"/>
</g>
<g>
	<path d="M249.8,40c0.3-1,0.9-1.8,1.7-2.4c0.8-0.6,1.8-0.9,3.1-0.9s2.2,0.3,2.8,1c0.6,0.7,0.9,1.8,0.9,3.3l-2.9,0.1
		c0-0.9-0.1-1.5-0.3-1.7c-0.2-0.3-0.5-0.4-0.9-0.4c-0.7,0-1.1,0.4-1.4,1.1c-0.2,0.7-0.4,1.8-0.4,3.3s0.2,2.5,0.6,3.2
		c0.4,0.7,1.1,1,2.1,1c0.6,0,1.5-0.2,2.6-0.5l0.6,1.9c-1.3,0.7-2.6,1-4,1c-3.4,0-5.1-2.2-5.1-6.6C249.3,42.1,249.4,41,249.8,40z"/>
	<path d="M263.7,36.7c2.4,0,3.8,1.1,4,3.4l-2.7,0.4c-0.2-1.1-0.7-1.7-1.6-1.7c-0.4,0-0.6,0.1-0.9,0.3c-0.2,0.2-0.3,0.4-0.3,0.7
		c0,0.3,0,0.5,0.1,0.7c0.1,0.2,0.3,0.4,0.5,0.6s0.4,0.3,0.6,0.4c0.1,0.1,0.4,0.2,0.8,0.5c0.4,0.2,0.8,0.4,1.1,0.6
		c0.3,0.2,0.6,0.3,0.9,0.5c0.3,0.2,0.6,0.4,0.9,0.7c0.6,0.6,0.9,1.3,0.9,2.3s-0.4,1.8-1.3,2.6c-0.8,0.8-1.9,1.1-3.2,1.1
		c-0.7,0-1.5-0.1-2.2-0.4c-0.8-0.2-1.5-0.6-2.1-1l1.1-2c1.2,0.7,2.2,1,3.2,1c0.4,0,0.7-0.1,1-0.3c0.3-0.2,0.5-0.5,0.5-0.9
		c0-0.4-0.2-0.8-0.6-1.1c-0.5-0.3-1-0.6-1.5-0.9c-0.5-0.2-0.9-0.4-1.4-0.7c-0.5-0.3-0.8-0.5-1-0.7c-0.2-0.2-0.4-0.4-0.5-0.6
		c-0.4-0.5-0.6-1.1-0.6-1.9c0-1.1,0.4-2,1.3-2.7C261.4,37,262.4,36.7,263.7,36.7z"/>
	<path d="M273.2,36.7c2.4,0,3.8,1.1,4,3.4l-2.7,0.4c-0.2-1.1-0.7-1.7-1.6-1.7c-0.4,0-0.6,0.1-0.9,0.3c-0.2,0.2-0.3,0.4-0.3,0.7
		c0,0.3,0,0.5,0.1,0.7c0.1,0.2,0.3,0.4,0.5,0.6c0.2,0.2,0.4,0.3,0.6,0.4c0.1,0.1,0.4,0.2,0.8,0.5c0.4,0.2,0.8,0.4,1.1,0.6
		c0.3,0.2,0.6,0.3,0.9,0.5s0.6,0.4,0.9,0.7c0.6,0.6,0.9,1.3,0.9,2.3s-0.4,1.8-1.3,2.6c-0.8,0.8-1.9,1.1-3.2,1.1
		c-0.7,0-1.5-0.1-2.2-0.4c-0.8-0.2-1.5-0.6-2.1-1l1.1-2c1.2,0.7,2.2,1,3.2,1c0.4,0,0.7-0.1,1-0.3c0.3-0.2,0.5-0.5,0.5-0.9
		c0-0.4-0.2-0.8-0.6-1.1c-0.5-0.3-1-0.6-1.5-0.9c-0.5-0.2-0.9-0.4-1.4-0.7c-0.5-0.3-0.8-0.5-1-0.7c-0.2-0.2-0.4-0.4-0.5-0.6
		c-0.4-0.5-0.6-1.1-0.6-1.9c0-1.1,0.4-2,1.3-2.7C271,37,272,36.7,273.2,36.7z"/>
	<path d="M288,45.5c0-1-0.7-1.5-2-1.5h-1.2v-2c0,0,0,0,0.1,0c0.8,0,1.4-0.2,1.9-0.5c0.5-0.3,0.7-0.7,0.7-1.2c0-0.1,0-0.3-0.1-0.4
		c-0.1-0.5-0.6-0.8-1.4-0.8c-0.4,0-1.1,0.2-2,0.5l-0.7-1.7c1.2-0.6,2.4-0.9,3.6-0.9c1.2,0,2.1,0.3,2.7,0.8c0.6,0.5,0.9,1.2,0.9,2.1
		c0,1.2-0.6,2.2-1.7,2.8c0.7,0.2,1.2,0.6,1.6,1.1c0.4,0.5,0.6,1.1,0.6,1.8c0,1.2-0.4,2.2-1.2,2.8c-0.8,0.7-1.9,1-3.2,1
		c-1.4,0-2.6-0.4-3.7-1.1l0.8-1.8c1,0.5,1.9,0.7,2.8,0.7C287.4,47.1,288,46.6,288,45.5z"/>
</g>
<g>
	<path fill="#FFFFFF" d="M142,261H21c-9.4,0-17-7.6-17-17v-43c0-9.4,7.6-17,17-17h121c9.4,0,17,7.6,17,17v43
		C159,253.4,151.4,261,142,261z"/>
</g>
<g>
	<path fill="#F7DF1E" d="M23.9,199.6h32.2c3.8,0,6.9,3.1,6.9,6.9v32.2c0,3.8-3.1,6.9-6.9,6.9H23.9c-3.8,0-6.9-3.1-6.9-6.9v-32.2
		C17,202.7,20.1,199.6,23.9,199.6z"/>
	<path d="M46.1,232.9c0.9,1.5,2.2,2.6,4.2,2.6c1.8,0,3-0.9,3-2.2c0-1.4-1.2-2-3.1-2.9l-1.1-0.4c-3.1-1.3-5.2-3-5.2-6.5
		c0-3.2,2.4-5.8,6.3-5.8c2.8,0,4.8,1,6.1,3.5l-3.3,2.2c-0.7-1.3-1.5-1.9-2.8-1.9s-2.1,0.8-2.1,1.9c0,1.3,0.8,1.8,2.7,2.6l1.1,0.4
		c3.7,1.6,5.8,3.1,5.8,6.8c0,3.9-3.1,6-7.2,6c-4,0-6.6-1.9-7.9-4.4L46.1,232.9z M30.9,233.2c0.7,1.2,1.3,2.2,2.8,2.2
		c1.4,0,2.3-0.5,2.3-2.7v-14.9h4.3v14.7c0,4.5-2.6,6.5-6.5,6.5c-3.5,0-5.5-1.8-6.5-4L30.9,233.2z"/>
</g>
<g>
	<path fill="#1A1A1A" d="M75.7,217.1v10.7c0,1.1-0.3,2.1-0.8,2.9c-0.5,0.8-1.5,1.5-3.1,2.2l-1.5-1.9c0.9-0.5,1.6-1,1.9-1.5
		c0.3-0.5,0.5-1.3,0.5-2.4v-10.1H75.7z"/>
	<path fill="#1A1A1A" d="M81.9,223.3c0-0.4-0.1-0.7-0.3-0.9c-0.2-0.2-0.5-0.3-1-0.3s-1.3,0.2-2.4,0.5l-0.8-1.7
		c0.4-0.2,1-0.4,1.7-0.6c0.7-0.2,1.4-0.3,2.1-0.3c0.7,0,1.3,0.1,1.8,0.3s0.8,0.4,1,0.7s0.3,0.7,0.4,1s0.1,0.7,0.1,1.2v3.4
		c0,0.4,0,0.8,0.1,1.1c0.1,0.3,0.3,0.6,0.6,0.9l-1.6,1.5c-0.3-0.1-0.5-0.3-0.8-0.6c-0.3-0.3-0.4-0.5-0.6-0.7h-0.1
		c-0.7,0.9-1.6,1.3-2.6,1.3c-1.7,0-2.6-0.9-2.6-2.7c0-0.9,0.3-1.7,0.8-2.1c0.5-0.5,1.3-0.8,2.4-1l1.6-0.3V223.3z M79.8,227.1
		c0,0.6,0.3,0.9,0.9,0.9c0.5,0,0.9-0.2,1.2-0.5v-1.7c-0.8,0.1-1.3,0.3-1.7,0.4C79.9,226.4,79.8,226.7,79.8,227.1z"/>
	<path fill="#1A1A1A" d="M91.1,220.1l2.5,0.3l-2.4,9.5H88l-2.5-9.5l2.7-0.3l1.4,7.3h0.1L91.1,220.1z"/>
	<path fill="#1A1A1A" d="M98.6,223.3c0-0.4-0.1-0.7-0.3-0.9c-0.2-0.2-0.5-0.3-1-0.3s-1.3,0.2-2.4,0.5l-0.8-1.7
		c0.4-0.2,1-0.4,1.7-0.6c0.7-0.2,1.4-0.3,2.1-0.3c0.7,0,1.3,0.1,1.8,0.3s0.8,0.4,1,0.7s0.3,0.7,0.4,1s0.1,0.7,0.1,1.2v3.4
		c0,0.4,0,0.8,0.1,1.1c0.1,0.3,0.3,0.6,0.6,0.9l-1.6,1.5c-0.3-0.1-0.5-0.3-0.8-0.6c-0.3-0.3-0.4-0.5-0.6-0.7h-0.1
		c-0.7,0.9-1.6,1.3-2.6,1.3c-1.7,0-2.6-0.9-2.6-2.7c0-0.9,0.3-1.7,0.8-2.1c0.5-0.5,1.3-0.8,2.4-1l1.6-0.3V223.3z M96.5,227.1
		c0,0.6,0.3,0.9,0.9,0.9c0.5,0,0.9-0.2,1.2-0.5v-1.7c-0.8,0.1-1.3,0.3-1.7,0.4C96.7,226.4,96.5,226.7,96.5,227.1z"/>
	<path fill="#1A1A1A" d="M102.8,223c0-0.9,0.3-1.6,1-2.1c0.7-0.5,1.6-0.8,2.6-0.8s1.9,0.2,2.5,0.7c0.6,0.5,0.9,1.2,1,2l-2.4,0.5
		c-0.1-0.8-0.5-1.2-1.2-1.2c-0.3,0-0.5,0.1-0.6,0.2s-0.3,0.3-0.3,0.5s0,0.3,0.1,0.4s0.1,0.2,0.2,0.3c0.1,0.1,0.2,0.2,0.3,0.2
		c0.1,0.1,0.2,0.1,0.4,0.2c0.2,0.1,0.3,0.1,0.4,0.2c0.2,0.1,0.6,0.3,1.2,0.5c0.6,0.2,1.1,0.6,1.5,0.9c0.4,0.4,0.6,0.9,0.6,1.7
		c0,0.7-0.3,1.4-1,2c-0.7,0.6-1.6,0.9-2.8,0.9s-2.4-0.4-3.6-1.1l1-1.8c1.2,0.5,2.1,0.8,2.6,0.8c0.3,0,0.5-0.1,0.7-0.2
		c0.2-0.1,0.3-0.3,0.3-0.5c0-0.3-0.1-0.5-0.4-0.6c-0.3-0.2-0.5-0.3-0.6-0.3c-1.1-0.4-2-0.9-2.6-1.4
		C103.1,224.5,102.8,223.9,102.8,223z"/>
	<path fill="#1A1A1A" d="M112.2,221.4c0.8-0.9,1.8-1.4,3.1-1.4s2.2,0.3,2.7,0.9c0.5,0.6,0.7,1.5,0.7,2.8l-2.6,0.1
		c0-0.7-0.1-1.2-0.2-1.4c-0.1-0.2-0.4-0.3-0.8-0.3c-0.4,0-0.7,0.2-0.9,0.7c-0.2,0.4-0.3,1.2-0.3,2.2c0,1,0.1,1.8,0.4,2.2
		c0.3,0.4,0.8,0.7,1.4,0.7c0.7,0,1.5-0.2,2.4-0.5l0.6,1.6c-1,0.7-2.2,1-3.6,1c-2.8,0-4.1-1.6-4.1-4.9
		C111,223.6,111.4,222.4,112.2,221.4z"/>
	<path fill="#1A1A1A" d="M123.2,220.6c0.4-0.4,0.9-0.6,1.5-0.6c0.6,0,1.1,0.1,1.5,0.3l-0.6,2.2c-0.4-0.1-0.7-0.2-1-0.2
		c-0.5,0-0.9,0.2-1.3,0.5c-0.4,0.3-0.6,0.9-0.6,1.5v5.4h-2.8v-6.8l-0.2-2.7l2.1-0.3l0.3,2h0.1C122.5,221.5,122.8,221,123.2,220.6z"
		/>
	<path fill="#1A1A1A" d="M128.2,219.6c-1,0-1.5-0.6-1.5-1.7c0-0.4,0.1-0.8,0.4-1.1c0.3-0.3,0.7-0.4,1.3-0.4c1,0,1.5,0.6,1.5,1.7
		c0,0.4-0.1,0.8-0.4,1.1C129.2,219.5,128.8,219.6,128.2,219.6z M129.7,229.9h-2.8v-9.4l2.8-0.3V229.9z"/>
	<path fill="#1A1A1A" d="M133.7,221.3c0.6-0.8,1.5-1.3,2.5-1.3c1,0,1.9,0.4,2.5,1.1c0.6,0.7,0.9,1.9,0.9,3.7c0,2.1-0.6,3.7-1.8,4.6
		c-0.6,0.5-1.3,0.7-2,0.7s-1.3-0.1-1.8-0.4l-0.1,0.1l0.3,0.5v2.9l-2.8,0.3v-10.3l-0.2-2.6l2.1-0.3L133.7,221.3L133.7,221.3z
		 M134.2,227.7c0.3,0.2,0.6,0.3,1.1,0.3c0.4,0,0.8-0.2,1-0.6c0.2-0.4,0.4-1.2,0.4-2.2c0-1-0.1-1.8-0.2-2.2c-0.2-0.4-0.5-0.7-1-0.7
		c-0.5,0-0.9,0.2-1.2,0.5V227.7z"/>
	<path fill="#1A1A1A" d="M144.2,220.2h2.4l-0.3,2h-2.1v4.1c0,0.6,0.1,1,0.3,1.3c0.2,0.2,0.5,0.4,0.9,0.4c0.2,0,0.5-0.1,1-0.2
		l0.5,1.6c-0.2,0.2-0.6,0.3-1.1,0.5c-0.5,0.1-1,0.2-1.4,0.2c-1.2,0-2-0.3-2.3-0.9s-0.5-1.6-0.5-3v-4h-1.4l0.3-1.8l1.2-0.2l0.1-1.8
		l2.6-0.8V220.2z"/>
</g>
<rect x="88.5" y="226.9" fill="none" width="3.6" height="0"/>
<g>
	<path fill="#FFFFFF" d="M143,170H22c-9.4,0-17-7.6-17-17v-43c0-9.4,7.6-17,17-17h121c9.4,0,17,7.6,17,17v43
		C160,162.4,152.4,170,143,170z"/>
</g>
<g>
	<path fill-rule="evenodd" clip-rule="evenodd" fill="#CC6699" d="M41.6,111.4c12.7,0,23,10.3,23,23s-10.3,23-23,23s-23-10.3-23-23
		S28.9,111.4,41.6,111.4z"/>
	<path fill="#FFFFFF" d="M56,121.3c-1-4.1-7.8-5.4-14.2-3.2c-4,1.3-7.7,3.5-10.9,6.3c-3.5,3.3-4.1,6.2-3.9,7.4c0.8,4.2,6.6,7,9,9.1
		v0c-0.7,0.3-5.9,3-7.1,5.6c-1.3,2.8,0.2,4.8,1.2,5.1c3,0.7,6.1-0.5,7.8-3.2c1.4-2.1,1.6-4.7,0.8-7c1.1-0.3,2.3-0.4,3.5-0.2
		c4,0.5,4.8,3,4.7,4c-0.1,0.8-0.6,1.4-1.3,1.8c-0.3,0.2-0.4,0.2-0.3,0.4c0,0.2,0.2,0.2,0.4,0.1c1.2-0.4,2.1-1.5,2.2-2.8
		c0.1-2.5-2.3-5.2-6.5-5.2c-1.2,0-2.4,0.1-3.6,0.5c-0.1-0.1-0.1-0.1-0.2-0.2c-2.6-2.8-7.4-4.7-7.2-8.4c0.1-1.4,0.5-4.9,9.2-9.2
		c7.1-3.5,12.8-2.6,13.8-0.4c1.4,3.1-3,8.8-10.4,9.6c-1.7,0.3-3.4-0.1-4.7-1.2c-0.4-0.4-0.4-0.4-0.6-0.4c-0.2,0.1-0.1,0.5,0,0.7
		c0.6,1,1.5,1.8,2.7,2.1c2.9,0.6,5.9,0.3,8.6-0.9C53.5,130.1,57,125.3,56,121.3z M37,142.1c0.3,1.1,0.3,2.3,0,3.4
		c0,0.1-0.1,0.2-0.1,0.3c0,0.1-0.1,0.2-0.1,0.3c-0.3,0.6-0.6,1.1-1.1,1.5c-1.3,1.5-3.2,2-4,1.5c-0.9-0.5-0.4-2.6,1.1-4.2
		c1.2-1.2,2.6-2.2,4.1-2.9l0,0L37,142.1z"/>
</g>
<g>
	<path fill="#1A1A1A" d="M81.9,128.9c2.4,0,3.8,1.1,4,3.4l-2.7,0.4c-0.2-1.1-0.7-1.7-1.6-1.7c-0.4,0-0.6,0.1-0.9,0.3
		c-0.2,0.2-0.3,0.4-0.3,0.7c0,0.3,0,0.5,0.1,0.7c0.1,0.2,0.3,0.4,0.5,0.6c0.2,0.2,0.4,0.3,0.6,0.4c0.1,0.1,0.4,0.2,0.8,0.5
		c0.4,0.2,0.8,0.4,1.1,0.6c0.3,0.2,0.6,0.3,0.9,0.5c0.3,0.2,0.6,0.4,0.9,0.7c0.6,0.6,0.9,1.3,0.9,2.3s-0.4,1.8-1.3,2.6
		c-0.8,0.8-1.9,1.1-3.2,1.1c-0.7,0-1.5-0.1-2.2-0.4s-1.5-0.6-2.1-1l1.1-2c1.2,0.7,2.2,1,3.2,1c0.4,0,0.7-0.1,1-0.3
		c0.3-0.2,0.5-0.5,0.5-0.9c0-0.4-0.2-0.8-0.6-1.1c-0.5-0.3-1-0.6-1.5-0.9c-0.5-0.2-0.9-0.4-1.4-0.7c-0.5-0.3-0.8-0.5-1-0.7
		c-0.2-0.2-0.4-0.4-0.5-0.6c-0.4-0.5-0.6-1.1-0.6-1.9c0-1.1,0.4-2,1.3-2.7C79.6,129.3,80.7,128.9,81.9,128.9z"/>
	<path fill="#1A1A1A" d="M87.5,132.3c0.3-1,0.9-1.8,1.7-2.4c0.8-0.6,1.8-0.9,3.1-0.9s2.2,0.3,2.8,1c0.6,0.7,0.9,1.8,0.9,3.3
		l-2.9,0.1c0-0.9-0.1-1.5-0.3-1.7c-0.2-0.3-0.5-0.4-0.9-0.4c-0.7,0-1.1,0.4-1.4,1.1c-0.2,0.7-0.4,1.8-0.4,3.3s0.2,2.5,0.6,3.2
		s1.1,1,2.1,1c0.6,0,1.5-0.2,2.6-0.5l0.6,1.9c-1.3,0.7-2.6,1-4,1c-3.4,0-5.1-2.2-5.1-6.6C87.1,134.3,87.2,133.2,87.5,132.3z"/>
	<path fill="#1A1A1A" d="M101.5,128.9c2.4,0,3.8,1.1,4,3.4l-2.7,0.4c-0.2-1.1-0.7-1.7-1.6-1.7c-0.4,0-0.6,0.1-0.9,0.3
		c-0.2,0.2-0.3,0.4-0.3,0.7c0,0.3,0,0.5,0.1,0.7c0.1,0.2,0.3,0.4,0.5,0.6c0.2,0.2,0.4,0.3,0.6,0.4c0.1,0.1,0.4,0.2,0.8,0.5
		c0.4,0.2,0.8,0.4,1.1,0.6c0.3,0.2,0.6,0.3,0.9,0.5c0.3,0.2,0.6,0.4,0.9,0.7c0.6,0.6,0.9,1.3,0.9,2.3s-0.4,1.8-1.3,2.6
		c-0.8,0.8-1.9,1.1-3.2,1.1c-0.7,0-1.5-0.1-2.2-0.4s-1.5-0.6-2.1-1l1.1-2c1.2,0.7,2.2,1,3.2,1c0.4,0,0.7-0.1,1-0.3
		c0.3-0.2,0.5-0.5,0.5-0.9c0-0.4-0.2-0.8-0.6-1.1c-0.5-0.3-1-0.6-1.5-0.9c-0.5-0.2-0.9-0.4-1.4-0.7c-0.5-0.3-0.8-0.5-1-0.7
		c-0.2-0.2-0.4-0.4-0.5-0.6c-0.4-0.5-0.6-1.1-0.6-1.9c0-1.1,0.4-2,1.3-2.7C99.2,129.3,100.2,128.9,101.5,128.9z"/>
	<path fill="#1A1A1A" d="M111,128.9c2.4,0,3.8,1.1,4,3.4l-2.7,0.4c-0.2-1.1-0.7-1.7-1.6-1.7c-0.4,0-0.6,0.1-0.9,0.3
		c-0.2,0.2-0.3,0.4-0.3,0.7c0,0.3,0,0.5,0.1,0.7c0.1,0.2,0.3,0.4,0.5,0.6c0.2,0.2,0.4,0.3,0.6,0.4c0.1,0.1,0.4,0.2,0.8,0.5
		c0.4,0.2,0.8,0.4,1.1,0.6c0.3,0.2,0.6,0.3,0.9,0.5c0.3,0.2,0.6,0.4,0.9,0.7c0.6,0.6,0.9,1.3,0.9,2.3s-0.4,1.8-1.3,2.6
		c-0.8,0.8-1.9,1.1-3.2,1.1c-0.7,0-1.5-0.1-2.2-0.4s-1.5-0.6-2.1-1l1.1-2c1.2,0.7,2.2,1,3.2,1c0.4,0,0.7-0.1,1-0.3
		c0.3-0.2,0.5-0.5,0.5-0.9c0-0.4-0.2-0.8-0.6-1.1c-0.5-0.3-1-0.6-1.5-0.9c-0.5-0.2-0.9-0.4-1.4-0.7c-0.5-0.3-0.8-0.5-1-0.7
		c-0.2-0.2-0.4-0.4-0.5-0.6c-0.4-0.5-0.6-1.1-0.6-1.9c0-1.1,0.4-2,1.3-2.7C108.7,129.3,109.8,128.9,111,128.9z"/>
</g>
<g>
	<path fill="#FFFFFF" d="M314,170H193c-9.4,0-17-7.6-17-17v-43c0-9.4,7.6-17,17-17h121c9.4,0,17,7.6,17,17v43
		C331,162.4,323.4,170,314,170z"/>
</g>
<g>
	<path fill="#FFCEBF" d="M212.4,150.8c0.1-0.1,0.2-0.3,0.4-0.4c1.8-1.9,3.7-3.9,5.5-5.8c1.2-1.1,1.7-2.6,1.6-4.2
		c-0.1-0.3-0.1-0.7-0.2-1c-0.5,0.5-1,0.9-1.4,1.3c-0.7,0.7-1.4,1.3-2.2,2c-0.9,0.9-2.2,1.2-3.4,0.7c-1.2-0.4-2-1.5-2-2.7
		c0-0.1,0-0.2-0.1-0.2c-0.6,0.5-1.1,0.9-1.6,1.4l-10.9,9.3c-0.1,0.1-0.2,0.1-0.2,0.2h14.6l0,0C212.3,151.2,212.3,151,212.4,150.8z"
		/>
	<path fill="#FFCEBF" d="M197.1,150.8c0.1-0.2,0.3-0.3,0.5-0.4l15.1-12.8c1-0.9,2.1-1.8,3.1-2.6c0.1-0.1,0.2-0.2,0.3-0.4
		c0.2-1.1,0.3-2.2,0.1-3.3c-0.2,0.1-0.2,0.2-0.3,0.2c-1.2,1.1-2.5,2.2-3.7,3.3c-0.8,0.9-2.1,1.1-3.2,0.5c-1.1-0.5-1.8-1.6-1.7-2.8
		c0-0.1,0-0.3,0-0.5c-0.2,0.2-0.4,0.3-0.5,0.4c-6.1,4.9-12.1,9.7-18.2,14.5c-0.3,0.2-0.6,0.7-1,0.2c-0.4-0.5,0.2-0.7,0.5-0.9
		c6.5-5.2,12.9-10.4,19.4-15.5c1.1-0.8,1.1-1.2,0.4-2.5l-0.4,0.4c-1.1,1-2.3,2.1-3.4,3.1c-1.3,1.3-3.4,1.2-4.7-0.1
		c-0.5-0.5-0.9-1.3-0.9-2c-0.2,0.2-0.4,0.3-0.6,0.4l-9.6,7.4c-0.2,0.2-0.4,0.3-0.6,0.4c-0.2,0-0.3,0-0.5,0v13.5h9.8
		C197,151.2,197,151,197.1,150.8z"/>
	<path fill="#FF6196" d="M223.7,108.1c-0.3,0.9-0.5,1.8-0.8,2.6c-0.4,1.3,0.2,2.7,1.4,3.3c1.8,1,3.9,1.4,6,1.3v-7c0-0.2,0-0.3,0-0.5
		c0-0.1,0.1-0.2,0.2-0.2h-6.8C223.8,107.7,223.7,107.9,223.7,108.1z"/>
	<path fill="#FF87AF" d="M209.9,123.2c0,0.8-0.3,1.5-0.8,2.2c-1.7,2.2-3.7,4.2-5.9,6c-0.7,0.7-1.8,0.8-2.6,0.3
		c-0.9-0.4-1.4-1.2-1.3-2.1c0.1-0.6,0.3-1.1,0.7-1.5c2.4-2.3,5.1-4.4,7.9-6.3c0.4-0.3,0.9-0.3,1.3-0.1
		C209.7,122,210,122.6,209.9,123.2z"/>
	<path fill="#FF87AF" d="M208,132.7c-0.1-0.7,0.2-1.4,0.7-1.9c2.4-2.2,4.9-4.2,7.7-6c0.1-0.1,0.2-0.1,0.2-0.2
		c0.5-0.4,1.1-0.3,1.6,0.1c0.4,0.4,0.6,1,0.4,1.5c-0.3,1.1-1,2.2-1.8,3c-1.7,1.7-3.5,3.4-5.3,5.1c-0.6,0.6-1.4,0.7-2.1,0.3
		C208.6,134.3,208.1,133.5,208,132.7z"/>
	<path fill="#FF87AF" d="M219.4,133.8c-0.4,0.5-0.9,0.9-1.3,1.4c-0.1,0.2-0.2,0.4-0.3,0.6c0.2,0.1,0.5,0.3,0.7,0.2
		c1-0.3,1.9-0.7,3-1.1c-0.2,0.5-0.4,1-0.6,1.5c-1,1.7-2.3,3.2-3.7,4.5c-0.6,0.5-1.1,1.1-1.7,1.5c-1,0.8-2.5,0.7-3.3-0.3
		c-0.3-0.3-0.4-0.7-0.5-1.1c-0.1-0.5,0.1-0.9,0.4-1.3c2.1-2.3,4.6-4.3,7.3-6c0,0,0.1,0,0.1,0L219.4,133.8z"/>
	<path fill="#FF6196" d="M223,127.5l2.7-11.9l1.9,0.4l-1,3c-0.9,2.7-1.8,5.5-2.7,8.3C223.7,127.7,223.4,127.8,223,127.5z"/>
	<path fill="#FF6196" d="M219.9,134.5c0.3-1.1,0.6-2.1,0.8-3.1c0.2-1,0.7-1.9,1.3-2.7c0.4-0.5,0.8-0.3,1.2-0.2
		c0.4,0.1,0.5,0.4,0.5,0.8c0.1,1.1-0.3,2.1-0.9,3C222.1,133.3,221.1,134,219.9,134.5z"/>
	<path d="M231.1,108.8c0-0.3,0-0.7,0-1c0-0.1-0.1-0.2-0.2-0.2c-0.1-0.1-0.2-0.1-0.2-0.1c-0.1,0-0.1,0-0.2,0.1
		c-0.1,0.1-0.1,0.1-0.2,0.2c0,0.2,0,0.3,0,0.5v7c-2.1,0.1-4.2-0.3-6-1.3c-1.2-0.6-1.9-2-1.4-3.3c0.2-0.9,0.5-1.8,0.8-2.6
		c0.1-0.2,0.1-0.4,0-0.5c-0.1-0.1-0.1-0.1-0.2-0.1c-0.1,0-0.2,0-0.3,0.1c-0.1,0.1-0.2,0.2-0.3,0.3c-0.3,0.9-0.6,1.9-0.8,2.9
		c-0.1,0.4-0.1,0.8-0.1,1.2c0.1,1.4,1.1,2.7,2.4,3.1c0.3,0.1,0.5,0.2,0.4,0.6c-0.1,0.5-0.2,1-0.3,1.5c-0.8,3.4-1.5,6.8-2.3,10.1
		c0,0.2-0.1,0.3-0.2,0.4c-0.5,0.4-0.9,0.9-1.2,1.4c-0.4,0.7-0.7,1.5-0.8,2.4c-0.1,0.5-0.4,1-0.9,1.2c-0.7,0.3-1.3,0.8-2,1.2
		c0-0.9,0-1.8,0-2.6c-0.1-0.5,0.1-1.1,0.4-1.5c1-0.9,1.6-2.1,2-3.4c0.4-1.1-0.2-2.2-1.3-2.6c-0.2-0.1-0.4-0.1-0.6-0.1
		c-0.5,0-1,0.1-1.5,0.4c-1.5,1-3,2.1-4.4,3.2c-0.9,0.6-1.7,1.4-2.5,2c0,0-0.1-0.1-0.1-0.1c0-0.1,0-0.2-0.1-0.3
		c-0.7-1.1-0.2-1.9,0.5-2.7c0.8-0.8,1.2-1.9,1.2-3.1c0-0.6-0.2-1.2-0.5-1.6c-0.2-0.2-0.4-0.4-0.7-0.6c-0.8-0.4-1.7-0.3-2.4,0.3
		l-0.4,0.3c-1,0.7-2,1.4-3,2.2c-1.4,1.1-2.8,2.3-4.1,3.5c-0.6,0.6-1.1,1.3-1.7,1.8c-3.4,2.7-6.8,5.3-10.3,8
		c-0.1,0.1-0.2,0.2-0.3,0.3c0,0,0,0,0,0c-0.1,0.2-0.1,0.4,0,0.5c0,0,0,0,0.1,0.1c0.1,0.1,0.3,0.1,0.5,0c0.2-0.1,0.4-0.2,0.6-0.4
		l9.6-7.4c0.2-0.1,0.4-0.3,0.6-0.4c0.2,1.8,1.8,3.2,3.6,3c0.8-0.1,1.5-0.4,2-0.9c1.1-1.1,2.2-2.1,3.4-3.1l0.4-0.4
		c0.7,1.3,0.6,1.7-0.4,2.5c-6.5,5.2-12.9,10.4-19.4,15.5c-0.3,0.2-0.8,0.4-0.5,0.9c0.4,0.5,0.7,0,1-0.2c6.1-4.8,12.1-9.7,18.2-14.5
		c0.2-0.1,0.3-0.2,0.5-0.4c0,0.2,0,0.4,0,0.5c-0.1,1.2,0.6,2.3,1.7,2.8c1.1,0.5,2.4,0.3,3.2-0.5c1.2-1.1,2.5-2.2,3.7-3.3
		c0.1-0.1,0.2-0.1,0.3-0.2c0.2,1.1,0.1,2.2-0.1,3.3c-0.1,0.1-0.2,0.3-0.3,0.4c-1,0.9-2.1,1.8-3.1,2.6l-15.1,12.8
		c-0.2,0.1-0.3,0.3-0.5,0.4c-0.1,0.2-0.1,0.3,0,0.5l0,0c0.1,0.1,0.3,0.1,0.5,0.1c0.1,0,0.1-0.1,0.2-0.1c0.1-0.1,0.2-0.1,0.2-0.2
		l10.9-9.3c0.5-0.4,1.1-0.9,1.6-1.4c0,0.1,0.1,0.2,0.1,0.2c0.1,1.2,0.9,2.3,2,2.7c1.2,0.5,2.5,0.2,3.4-0.7c0.7-0.7,1.4-1.3,2.2-2
		c0.5-0.4,0.9-0.9,1.4-1.3c0.1,0.3,0.2,0.6,0.2,1c0.1,1.6-0.4,3.1-1.6,4.2c-1.8,2-3.7,3.9-5.5,5.8c-0.1,0.1-0.3,0.2-0.4,0.4
		c-0.1,0.1-0.1,0.4,0,0.5l0,0c0.2,0.1,0.4,0.1,0.5,0.1c0.1,0,0.1,0,0.1-0.1c0,0,0.1-0.1,0.1-0.1c1.5-1.5,3-3.1,4.5-4.6
		c0.6-0.6,1.2-1.2,1.7-1.9c1.4-1.5,1.8-3.8,1-5.7c0-0.2,0-0.4,0.1-0.6c0.1-0.2,0.2-0.3,0.3-0.5c0.4-0.5,0.7-1,0.9-1.6
		c0.5-1.4,1.2-2.7,2.1-3.8c0.9-1.1,1.2-2.5,0.8-3.9c-0.1-0.3-0.1-0.5,0-0.8c0.8-2.5,1.6-4.9,2.4-7.4c0.4-1.1,0.7-2.2,1.1-3.3l0.3-1
		c0.7,0,1.4,0,2.1,0c0.6,0,0.7-0.2,0.7-0.8C231.1,113.2,231.1,111,231.1,108.8z M203.3,131.3c-0.7,0.7-1.8,0.8-2.6,0.3
		c-0.9-0.4-1.4-1.2-1.3-2.1c0.1-0.6,0.3-1.1,0.7-1.5c2.4-2.3,5.1-4.4,7.9-6.3c0.2-0.1,0.3-0.2,0.5-0.2c0.1,0,0.3,0,0.4,0
		c0.1,0,0.3,0.1,0.4,0.2c0.5,0.3,0.8,0.9,0.8,1.5c0,0.8-0.3,1.5-0.8,2.2C207.4,127.6,205.4,129.6,203.3,131.3z M211.4,134.4
		c-0.6,0.6-1.4,0.7-2.1,0.3c-0.7-0.4-1.2-1.1-1.3-1.9c-0.1-0.7,0.2-1.4,0.7-1.9c2.4-2.2,4.9-4.2,7.7-6c0.1-0.1,0.2-0.1,0.2-0.2
		c0.5-0.4,1.1-0.3,1.6,0.1c0.4,0.4,0.6,1,0.4,1.5c-0.3,1.1-1,2.2-1.8,3C215,131,213.2,132.7,211.4,134.4L211.4,134.4z M220.7,136.3
		c-1,1.7-2.3,3.2-3.7,4.5c-0.6,0.5-1.1,1.1-1.7,1.5c-1,0.8-2.5,0.7-3.3-0.3c-0.3-0.3-0.4-0.7-0.5-1.1c-0.1-0.5,0.1-0.9,0.4-1.3
		c2.1-2.3,4.6-4.3,7.3-6c0,0,0.1,0,0.1,0l0.2,0.2c-0.4,0.5-0.9,0.9-1.3,1.4c-0.1,0.2-0.2,0.4-0.3,0.6c0.2,0.1,0.5,0.3,0.7,0.2
		c0.8-0.3,1.5-0.5,2.3-0.9l0.6-0.3C221.1,135.4,221,135.9,220.7,136.3L220.7,136.3z M222.9,132.3c-0.6,0.7-1.3,1.4-2.2,1.8
		c-0.3,0.1-0.5,0.3-0.8,0.4c0.3-1.1,0.6-2.1,0.8-3.1l0,0c0.2-1,0.7-1.9,1.3-2.7c0.4-0.5,0.8-0.3,1.2-0.2c0.4,0.1,0.5,0.4,0.5,0.8
		C223.9,130.4,223.5,131.5,222.9,132.3L222.9,132.3z M226.5,119c-0.9,2.7-1.8,5.5-2.7,8.3c-0.2,0.5-0.4,0.6-0.9,0.3l2.3-10.4
		l0.4-1.6l1.9,0.4c-0.1,0.4-0.3,0.8-0.4,1.1L226.5,119z"/>
</g>
<g>
	<path fill="#1A1A1A" d="M238.7,115.3c2.3,0,3.6,1.1,3.8,3.4l-2.6,0.4c-0.2-1.1-0.7-1.6-1.5-1.6c-0.3,0-0.6,0.1-0.8,0.3
		c-0.2,0.2-0.3,0.4-0.3,0.7c0,0.3,0,0.5,0.1,0.7c0.1,0.2,0.2,0.4,0.5,0.6c0.2,0.2,0.4,0.3,0.6,0.4c0.1,0.1,0.4,0.2,0.8,0.5
		c0.4,0.2,0.7,0.4,1,0.6c0.3,0.2,0.6,0.3,0.8,0.5s0.6,0.4,0.9,0.7c0.6,0.5,0.9,1.3,0.9,2.3s-0.4,1.8-1.2,2.6
		c-0.8,0.7-1.8,1.1-3.1,1.1c-0.7,0-1.4-0.1-2.1-0.4s-1.4-0.6-2-1l1-1.9c1.1,0.7,2.1,1,3.1,1c0.4,0,0.7-0.1,1-0.3
		c0.3-0.2,0.4-0.5,0.4-0.9c0-0.4-0.2-0.8-0.6-1.1c-0.5-0.3-0.9-0.6-1.4-0.9c-0.4-0.2-0.9-0.4-1.3-0.7c-0.4-0.3-0.7-0.5-0.9-0.7
		c-0.2-0.2-0.3-0.4-0.5-0.6c-0.4-0.5-0.5-1.1-0.5-1.9c0-1.1,0.4-2,1.2-2.6C236.5,115.7,237.5,115.3,238.7,115.3z"/>
	<path fill="#1A1A1A" d="M247.1,118.6h2.3l-0.3,2h-2v4.1c0,0.6,0.1,1,0.2,1.3c0.2,0.2,0.4,0.4,0.8,0.4c0.2,0,0.5-0.1,1-0.2l0.5,1.6
		c-0.2,0.2-0.6,0.3-1.1,0.5s-0.9,0.2-1.3,0.2c-1.1,0-1.9-0.3-2.2-0.9s-0.5-1.6-0.5-2.9v-4h-1.3l0.2-1.8l1.1-0.2l0.1-1.8l2.5-0.8
		V118.6z"/>
	<path fill="#1A1A1A" d="M255,118.5l2.4,0.3l-2.1,7.7c-0.2,0.8-0.4,1.4-0.7,2c-0.2,0.5-0.5,1-0.9,1.5c-0.4,0.5-0.8,0.9-1.4,1.2
		c-0.6,0.3-1.1,0.5-1.7,0.5l-0.9-1.7c1.4-0.3,2.2-0.9,2.4-2c-0.3-1-0.7-2.6-1.3-4.8s-1-3.6-1.2-4.4l2.6-0.3l1.3,7.1h0.1L255,118.5z"
		/>
	<path fill="#1A1A1A" d="M260.9,124.9c0,0.6,0,1,0.1,1.3c0.1,0.3,0.3,0.6,0.6,1l-1.9,1.4c-0.6-0.6-0.9-1.1-1.1-1.6
		c-0.2-0.5-0.3-1.1-0.3-2.1V115l2.7-0.3V124.9z"/>
	<path fill="#1A1A1A" d="M266.4,118.4c1.1,0,2,0.3,2.5,1c0.4,0.5,0.7,1.4,0.8,2.7c0,0.5,0.1,1.1,0.1,1.9l-1.2,0.2h-3.6
		c0,0.7,0.1,1.2,0.4,1.6c0.3,0.4,0.7,0.5,1.4,0.5s1.4-0.2,2.4-0.5l0.5,1.7c-1.1,0.6-2.2,1-3.4,1c-2.7,0-4-1.6-4-4.9
		c0-1.5,0.3-2.8,1-3.7C264,118.9,265.1,118.4,266.4,118.4z M267,121c-0.1-0.3-0.4-0.4-0.8-0.4s-0.7,0.2-0.9,0.5s-0.3,0.8-0.3,1.4
		h2.1C267.2,121.7,267.1,121.2,267,121z"/>
	<path fill="#1A1A1A" d="M272.1,119.5c0.4-0.4,0.8-0.6,1.2-0.8c0.4-0.2,0.9-0.2,1.5-0.2s1.1,0.1,1.5,0.4l0.1-0.1l-0.3-0.5v-3.5
		l2.6-0.3v10.9l0.2,2.7l-2.1,0.3l-0.2-1.1h-0.1c-0.6,0.8-1.4,1.2-2.3,1.2c-2.2,0-3.3-1.6-3.3-4.8c0-1,0.1-1.8,0.4-2.5
		C271.4,120.4,271.7,119.8,272.1,119.5z M276,120.8c-0.3-0.2-0.5-0.3-0.8-0.3c-0.3,0-0.5,0-0.6,0.1c-0.1,0.1-0.3,0.2-0.4,0.3
		c-0.3,0.4-0.5,1.1-0.5,2.3s0.1,2,0.3,2.4c0.2,0.4,0.5,0.6,1,0.6c0.5,0,0.8-0.2,1.1-0.5V120.8z"/>
	<path fill="#1A1A1A" d="M235,136.4c0.3-0.9,0.9-1.7,1.6-2.4c0.8-0.6,1.8-0.9,3-0.9c1.2,0,2.1,0.3,2.7,1c0.6,0.7,0.8,1.7,0.8,3.3
		l-2.8,0.1c0-0.9-0.1-1.4-0.3-1.7c-0.2-0.3-0.5-0.4-0.9-0.4c-0.6,0-1.1,0.4-1.3,1.1s-0.3,1.8-0.3,3.2c0,1.4,0.2,2.5,0.6,3.2
		c0.4,0.7,1.1,1,2.1,1c0.6,0,1.4-0.2,2.5-0.5l0.6,1.9c-1.2,0.7-2.5,1-3.8,1c-3.3,0-4.9-2.2-4.9-6.5
		C234.5,138.5,234.7,137.4,235,136.4z"/>
	<path fill="#1A1A1A" d="M248.4,136.2c0.6,0,1.2,0.1,1.7,0.3c0.5,0.2,0.8,0.5,1.1,0.8c0.3,0.3,0.5,0.7,0.6,1.2
		c0.3,0.8,0.4,1.7,0.4,2.8c0,1.7-0.5,3-1.4,3.9c-0.7,0.7-1.7,1-2.9,1c-0.6,0-1.2-0.1-1.7-0.3c-0.5-0.2-0.8-0.5-1.1-0.8
		c-0.3-0.3-0.5-0.7-0.7-1.2c-0.3-0.7-0.4-1.7-0.4-2.8c0-1,0.2-2,0.6-2.8C245.4,136.9,246.6,136.2,248.4,136.2z M249.4,141.2
		c0-1.1-0.1-1.8-0.2-2.2c-0.2-0.4-0.5-0.6-1-0.6s-0.9,0.2-1,0.6c-0.1,0.4-0.2,1.1-0.2,2.2s0.1,1.8,0.2,2.2c0.2,0.4,0.5,0.6,1,0.6
		c0.5,0,0.9-0.2,1-0.6C249.3,143,249.4,142.3,249.4,141.2z"/>
	<path fill="#1A1A1A" d="M258.1,136.2c1,0,1.7,0.4,2.2,1.2c0.6-0.8,1.4-1.2,2.5-1.2c1.8,0,2.7,1.1,2.7,3.4v6.3h-2.7v-6.4
		c0-0.8-0.3-1.2-0.9-1.2c-0.4,0-0.8,0.2-1.1,0.5v7.1h-2.6v-6.4c0-0.8-0.3-1.2-0.9-1.2c-0.4,0-0.8,0.2-1.1,0.5v7.1h-2.6v-6.7
		l-0.2-2.7l2.1-0.3l0.2,1.1h0.1C256.3,136.6,257.1,136.2,258.1,136.2z"/>
	<path fill="#1A1A1A" d="M269.2,137.5c0.6-0.8,1.4-1.2,2.4-1.2s1.8,0.4,2.4,1.1s0.9,1.9,0.9,3.7c0,2.1-0.6,3.6-1.7,4.5
		c-0.6,0.5-1.2,0.7-2,0.7s-1.3-0.1-1.7-0.4l-0.1,0.1l0.3,0.5v2.9l-2.6,0.3v-10.2l-0.2-2.6l2.1-0.3L269.2,137.5L269.2,137.5z
		 M269.7,143.8c0.3,0.2,0.6,0.3,1,0.3c0.4,0,0.7-0.2,1-0.6c0.2-0.4,0.3-1.1,0.3-2.2c0-1-0.1-1.8-0.2-2.2s-0.5-0.7-1-0.7
		s-0.9,0.2-1.1,0.5V143.8z"/>
	<path fill="#1A1A1A" d="M280.1,136.2c0.6,0,1.2,0.1,1.7,0.3c0.5,0.2,0.8,0.5,1.1,0.8c0.3,0.3,0.5,0.7,0.6,1.2
		c0.3,0.8,0.4,1.7,0.4,2.8c0,1.7-0.5,3-1.4,3.9c-0.7,0.7-1.7,1-2.9,1c-0.6,0-1.2-0.1-1.7-0.3c-0.5-0.2-0.8-0.5-1.1-0.8
		c-0.3-0.3-0.5-0.7-0.7-1.2c-0.3-0.7-0.4-1.7-0.4-2.8c0-1,0.2-2,0.6-2.8C277.1,136.9,278.4,136.2,280.1,136.2z M281.1,141.2
		c0-1.1-0.1-1.8-0.2-2.2s-0.5-0.6-1-0.6c-0.5,0-0.9,0.2-1,0.6c-0.1,0.4-0.2,1.1-0.2,2.2s0.1,1.8,0.2,2.2c0.2,0.4,0.5,0.6,1,0.6
		c0.5,0,0.9-0.2,1-0.6C281.1,143,281.1,142.3,281.1,141.2z"/>
	<path fill="#1A1A1A" d="M290,136.2c0.9,0,1.5,0.3,2,0.8c0.5,0.5,0.7,1.3,0.7,2.2v6.7h-2.7v-6.4c0-0.8-0.4-1.2-1.1-1.2
		c-0.4,0-0.8,0.2-1.1,0.5v7.1h-2.6v-6.7l-0.2-2.6l2.1-0.3l0.2,1.1h0.1C288.1,136.6,288.9,136.2,290,136.2z"/>
	<path fill="#1A1A1A" d="M298.2,136.2c1.1,0,2,0.3,2.5,1c0.4,0.5,0.7,1.4,0.8,2.7c0,0.5,0.1,1.1,0.1,1.9l-1.2,0.2h-3.6
		c0,0.7,0.1,1.2,0.4,1.6c0.3,0.4,0.7,0.5,1.4,0.5s1.4-0.2,2.4-0.5l0.5,1.7c-1.1,0.6-2.2,1-3.4,1c-2.7,0-4-1.6-4-4.9
		c0-1.5,0.3-2.8,1-3.7S296.8,136.2,298.2,136.2z M298.8,138.8c-0.1-0.3-0.4-0.4-0.8-0.4c-0.4,0-0.7,0.2-0.9,0.5
		c-0.2,0.3-0.3,0.8-0.3,1.4h2.1C299,139.5,298.9,139,298.8,138.8z"/>
	<path fill="#1A1A1A" d="M307.6,136.2c0.9,0,1.5,0.3,2,0.8c0.5,0.5,0.7,1.3,0.7,2.2v6.7h-2.7v-6.4c0-0.8-0.4-1.2-1.1-1.2
		c-0.4,0-0.8,0.2-1.1,0.5v7.1h-2.6v-6.7l-0.2-2.6l2.1-0.3l0.2,1.1h0.1C305.7,136.6,306.6,136.2,307.6,136.2z"/>
	<path fill="#1A1A1A" d="M315.1,136.4h2.3l-0.3,2h-2v4.1c0,0.6,0.1,1,0.2,1.3c0.2,0.2,0.4,0.4,0.8,0.4c0.2,0,0.5-0.1,1-0.2l0.5,1.6
		c-0.2,0.2-0.6,0.3-1.1,0.5c-0.5,0.1-0.9,0.2-1.3,0.2c-1.1,0-1.9-0.3-2.2-0.9c-0.4-0.6-0.5-1.6-0.5-2.9v-4h-1.3l0.2-1.8l1.1-0.2
		l0.1-1.8l2.5-0.8V136.4z"/>
	<path fill="#1A1A1A" d="M318.1,139.1c0-0.9,0.3-1.6,1-2.1c0.7-0.5,1.5-0.8,2.5-0.8c1,0,1.8,0.2,2.4,0.7s0.9,1.2,1,2l-2.3,0.5
		c-0.1-0.8-0.5-1.2-1.2-1.2c-0.3,0-0.5,0.1-0.6,0.2s-0.2,0.3-0.2,0.5c0,0.2,0,0.3,0.1,0.4c0,0.1,0.1,0.2,0.2,0.3
		c0.1,0.1,0.2,0.2,0.3,0.2c0.1,0.1,0.2,0.1,0.4,0.2s0.3,0.1,0.4,0.2c0.2,0.1,0.5,0.3,1.1,0.5c0.6,0.2,1.1,0.6,1.4,0.9
		s0.6,0.9,0.6,1.7s-0.3,1.4-1,2s-1.5,0.9-2.7,0.9c-1.2,0-2.3-0.4-3.5-1.1l0.9-1.8c1.1,0.5,2,0.8,2.5,0.8c0.3,0,0.5-0.1,0.7-0.2
		c0.2-0.1,0.3-0.3,0.3-0.5c0-0.2-0.1-0.5-0.4-0.6c-0.3-0.2-0.5-0.3-0.6-0.3c-1.1-0.4-1.9-0.9-2.5-1.4
		C318.4,140.7,318.1,140,318.1,139.1z"/>
</g>
<g>
	<path fill="#FFFFFF" d="M313,261H192c-9.4,0-17-7.6-17-17v-43c0-9.4,7.6-17,17-17h121c9.4,0,17,7.6,17,17v43
		C330,253.4,322.4,261,313,261z"/>
</g>
<g>
	<path fill="#3178C6" d="M195,199.4h32.2c3.8,0,6.9,3.1,6.9,6.9v32.2c0,3.8-3.1,6.9-6.9,6.9H195c-3.8,0-6.9-3.1-6.9-6.9v-32.2
		C188.1,202.5,191.2,199.4,195,199.4z"/>
	<path fill="#FFFFFF" d="M209.1,225h5.8v-3.7h-16.1v3.7h5.8v16.4h4.6V225z M216.6,240.5c0.7,0.4,1.6,0.7,2.6,0.8s2.1,0.3,3.1,0.3
		s2.1-0.1,3.1-0.3s1.8-0.5,2.5-1c0.7-0.5,1.3-1.1,1.7-1.9s0.6-1.7,0.6-2.9c0-0.8-0.1-1.5-0.4-2.2c-0.2-0.6-0.6-1.2-1.1-1.6
		c-0.5-0.5-1-0.9-1.6-1.3s-1.3-0.7-2.2-1.1c-0.6-0.2-1.1-0.5-1.6-0.7c-0.5-0.2-0.9-0.5-1.2-0.7c-0.3-0.2-0.6-0.5-0.8-0.8
		c-0.2-0.3-0.3-0.6-0.3-0.9c0-0.3,0.1-0.6,0.2-0.8s0.4-0.5,0.7-0.6s0.6-0.3,1.1-0.4c0.4-0.1,0.9-0.1,1.4-0.1c0.4,0,0.8,0,1.2,0.1
		c0.4,0.1,0.8,0.1,1.3,0.3c0.4,0.1,0.8,0.3,1.3,0.4c0.4,0.2,0.8,0.4,1.1,0.6v-4.2c-0.7-0.3-1.4-0.5-2.2-0.6
		c-0.8-0.1-1.7-0.2-2.8-0.2s-2.1,0.1-3.1,0.3s-1.8,0.6-2.5,1.1c-0.7,0.5-1.3,1.1-1.7,1.9c-0.4,0.8-0.6,1.6-0.6,2.7
		c0,1.3,0.4,2.5,1.2,3.4c0.8,1,2,1.7,3.5,2.4c0.6,0.3,1.2,0.5,1.7,0.7c0.5,0.2,1,0.5,1.3,0.8c0.4,0.3,0.7,0.5,0.9,0.9
		c0.2,0.3,0.3,0.7,0.3,1.1c0,0.3-0.1,0.6-0.2,0.8c-0.1,0.3-0.4,0.5-0.6,0.6s-0.6,0.3-1.1,0.4c-0.4,0.1-0.9,0.2-1.5,0.2
		c-1,0-2-0.2-2.9-0.5c-1-0.3-1.9-0.9-2.5-1.4V240.5z"/>
</g>
<g>
	<path fill="#1A1A1A" d="M247.1,220.4v10.5h-3v-10.5h-3l0.3-2.2h8.6l-0.3,2.2H247.1z"/>
	<path fill="#1A1A1A" d="M255.8,221.2l2.5,0.3l-2.2,7.8c-0.2,0.8-0.4,1.4-0.7,2c-0.2,0.5-0.6,1-0.9,1.5c-0.4,0.5-0.9,0.9-1.4,1.2
		c-0.6,0.3-1.2,0.5-1.8,0.5l-1-1.7c1.5-0.3,2.3-0.9,2.6-2c-0.3-1-0.8-2.6-1.4-4.8s-1-3.7-1.3-4.5l2.7-0.3l1.3,7.1h0.1L255.8,221.2z"
		/>
	<path fill="#1A1A1A" d="M261.5,222.4c0.6-0.8,1.5-1.3,2.5-1.3c1,0,1.9,0.4,2.5,1.1c0.6,0.7,0.9,1.9,0.9,3.7c0,2.1-0.6,3.7-1.8,4.6
		c-0.6,0.5-1.3,0.7-2,0.7s-1.3-0.1-1.8-0.4l-0.1,0.1l0.3,0.5v2.9l-2.8,0.3v-10.4l-0.2-2.6l2.1-0.3L261.5,222.4L261.5,222.4z
		 M262,228.7c0.3,0.2,0.6,0.3,1.1,0.3c0.4,0,0.8-0.2,1-0.6c0.2-0.4,0.4-1.2,0.4-2.2s-0.1-1.8-0.2-2.2c-0.2-0.5-0.5-0.7-1-0.7
		c-0.5,0-0.9,0.2-1.2,0.5V228.7z"/>
	<path fill="#1A1A1A" d="M272.8,221.1c1.2,0,2.1,0.3,2.6,1c0.5,0.5,0.8,1.4,0.9,2.7c0,0.5,0.1,1.1,0.1,1.9l-1.3,0.2h-3.7
		c0,0.7,0.1,1.2,0.4,1.6c0.3,0.4,0.7,0.5,1.4,0.5c0.7,0,1.5-0.2,2.5-0.5l0.6,1.7c-1.1,0.6-2.3,1-3.6,1c-2.8,0-4.2-1.7-4.2-5
		c0-1.6,0.4-2.8,1.1-3.7S271.3,221.1,272.8,221.1z M273.4,223.6c-0.1-0.3-0.4-0.4-0.8-0.4c-0.4,0-0.7,0.2-0.9,0.5
		c-0.2,0.3-0.3,0.8-0.3,1.4h2.2C273.6,224.4,273.5,223.9,273.4,223.6z"/>
	<path fill="#1A1A1A" d="M277.3,224c0-0.9,0.3-1.6,1-2.1c0.7-0.5,1.6-0.8,2.6-0.8c1.1,0,1.9,0.2,2.5,0.7c0.6,0.5,0.9,1.2,1,2
		l-2.4,0.5c-0.1-0.8-0.5-1.2-1.2-1.2c-0.3,0-0.5,0.1-0.6,0.2c-0.2,0.2-0.3,0.3-0.3,0.5c0,0.2,0,0.3,0.1,0.4c0,0.1,0.1,0.2,0.2,0.3
		c0.1,0.1,0.2,0.2,0.3,0.2c0.1,0.1,0.2,0.1,0.4,0.2s0.3,0.1,0.4,0.2c0.2,0.1,0.6,0.3,1.2,0.5c0.6,0.2,1.1,0.6,1.5,0.9
		c0.4,0.4,0.6,0.9,0.6,1.7c0,0.7-0.3,1.4-1,2s-1.6,0.9-2.8,0.9s-2.4-0.4-3.6-1.1l1-1.8c1.2,0.5,2.1,0.8,2.6,0.8
		c0.3,0,0.5-0.1,0.7-0.2c0.2-0.1,0.3-0.3,0.3-0.5c0-0.3-0.1-0.5-0.4-0.6c-0.3-0.2-0.5-0.3-0.6-0.3c-1.1-0.4-2-0.9-2.6-1.4
		C277.6,225.6,277.3,224.9,277.3,224z"/>
	<path fill="#1A1A1A" d="M286.7,222.5c0.8-0.9,1.8-1.4,3.1-1.4s2.2,0.3,2.7,0.9c0.5,0.6,0.7,1.5,0.7,2.8l-2.6,0.1
		c0-0.7-0.1-1.2-0.2-1.4c-0.1-0.2-0.4-0.3-0.8-0.3c-0.4,0-0.7,0.2-0.9,0.7c-0.2,0.4-0.3,1.2-0.3,2.2c0,1,0.1,1.8,0.4,2.2
		c0.3,0.4,0.8,0.7,1.4,0.7s1.5-0.2,2.4-0.5l0.6,1.6c-1,0.7-2.2,1-3.6,1c-2.8,0-4.1-1.6-4.1-4.9C285.5,224.6,285.9,223.4,286.7,222.5
		z"/>
	<path fill="#1A1A1A" d="M297.8,221.6c0.4-0.4,0.9-0.6,1.5-0.6c0.6,0,1.1,0.1,1.5,0.3l-0.6,2.2c-0.4-0.1-0.7-0.2-1-0.2
		c-0.5,0-0.9,0.2-1.3,0.5c-0.4,0.3-0.6,0.9-0.6,1.5v5.4h-2.8v-6.8l-0.2-2.7l2.1-0.3l0.3,2h0.1C297,222.5,297.3,222,297.8,221.6z"/>
	<path fill="#1A1A1A" d="M302.7,220.7c-1,0-1.5-0.6-1.5-1.7c0-0.4,0.1-0.8,0.4-1.1c0.3-0.3,0.7-0.4,1.3-0.4c1,0,1.5,0.6,1.5,1.7
		c0,0.4-0.1,0.8-0.4,1.1C303.7,220.5,303.3,220.7,302.7,220.7z M304.2,230.9h-2.8v-9.4l2.8-0.3V230.9z"/>
	<path fill="#1A1A1A" d="M308.2,222.4c0.6-0.8,1.5-1.3,2.5-1.3c1,0,1.9,0.4,2.5,1.1s0.9,1.9,0.9,3.7c0,2.1-0.6,3.7-1.8,4.6
		c-0.6,0.5-1.3,0.7-2,0.7s-1.3-0.1-1.8-0.4l-0.1,0.1l0.3,0.5v2.9l-2.8,0.3v-10.4l-0.2-2.6l2.1-0.3L308.2,222.4L308.2,222.4z
		 M308.7,228.7c0.3,0.2,0.6,0.3,1.1,0.3c0.4,0,0.8-0.2,1-0.6c0.2-0.4,0.4-1.2,0.4-2.2s-0.1-1.8-0.2-2.2c-0.2-0.5-0.5-0.7-1-0.7
		s-0.9,0.2-1.2,0.5V228.7z"/>
	<path fill="#1A1A1A" d="M318.7,221.2h2.4l-0.3,2h-2.1v4.1c0,0.6,0.1,1,0.3,1.3c0.2,0.2,0.5,0.4,0.9,0.4c0.2,0,0.5-0.1,1-0.2
		l0.5,1.6c-0.2,0.2-0.6,0.3-1.1,0.5c-0.5,0.1-1,0.2-1.4,0.2c-1.2,0-2-0.3-2.3-0.9c-0.4-0.6-0.5-1.6-0.5-3v-4h-1.4l0.3-1.8l1.2-0.2
		l0.1-1.8l2.6-0.8V221.2z"/>
</g>
<g>
	<path fill="#FFFFFF" d="M488,262H367c-9.4,0-17-7.6-17-17v-43c0-9.4,7.6-17,17-17h121c9.4,0,17,7.6,17,17v43
		C505,254.4,497.4,262,488,262z"/>
</g>
<g>
	<path fill="#00D8FF" d="M402.1,215.4c-0.5-0.2-1.1-0.4-1.6-0.5c0.1-0.4,0.2-0.8,0.2-1.1c1.2-6.1,0.4-11-2.3-12.7
		c-2.6-1.6-6.9,0.1-11.2,3.9c-0.4,0.4-0.8,0.8-1.2,1.2c-0.3-0.3-0.6-0.5-0.8-0.8c-4.5-4.1-9-5.9-11.8-4.3c-2.6,1.6-3.4,6.2-2.3,12
		c0.1,0.6,0.2,1.1,0.4,1.7c-0.6,0.2-1.3,0.4-1.9,0.6c-5.3,1.9-8.7,4.9-8.7,8c0,3.2,3.6,6.4,9.1,8.4c0.4,0.2,0.9,0.3,1.4,0.4
		c-0.2,0.6-0.3,1.2-0.4,1.8c-1,5.7-0.2,10.2,2.4,11.8c2.7,1.6,7.2,0,11.6-4c0.3-0.3,0.7-0.6,1-1c0.5,0.4,0.9,0.9,1.4,1.3
		c4.2,3.8,8.4,5.3,11,3.8c2.7-1.6,3.6-6.5,2.4-12.4c-0.1-0.5-0.2-0.9-0.3-1.4c0.3-0.1,0.6-0.2,0.9-0.3c5.7-2,9.5-5.1,9.5-8.4
		C411,220.3,407.5,217.3,402.1,215.4L402.1,215.4z M400.9,229.7c-0.3,0.1-0.6,0.2-0.8,0.3c-0.6-2.1-1.5-4.3-2.5-6.5
		c1-2.2,1.8-4.4,2.4-6.5c0.5,0.2,1,0.3,1.5,0.5c4.6,1.6,7.4,4.1,7.4,6C408.9,225.5,405.8,228,400.9,229.7L400.9,229.7z M398.8,234
		c0.5,2.6,0.6,5,0.2,6.8c-0.3,1.7-0.9,2.8-1.6,3.2c-1.6,0.9-4.9-0.3-8.6-3.5c-0.4-0.4-0.8-0.8-1.3-1.2c1.4-1.6,2.8-3.4,4.2-5.5
		c2.4-0.2,4.7-0.6,6.8-1.1C398.6,233.1,398.7,233.5,398.8,234L398.8,234z M378,243.8c-1.5,0.6-2.8,0.6-3.5,0.1
		c-1.6-0.9-2.2-4.6-1.3-9.4c0.1-0.6,0.2-1.1,0.4-1.7c2,0.5,4.3,0.8,6.7,1c1.4,2,2.8,3.9,4.3,5.5c-0.3,0.3-0.6,0.6-1,0.9
		C381.7,242,379.8,243.2,378,243.8L378,243.8z M370.8,229.7c-2.4-0.9-4.5-2-5.8-3.2c-1.2-1.1-1.9-2.2-1.9-3.1c0-1.9,2.7-4.3,7.2-5.9
		c0.5-0.2,1.1-0.4,1.7-0.6c0.6,2.1,1.4,4.3,2.4,6.5c-1,2.3-1.8,4.5-2.5,6.6C371.6,230,371.2,229.9,370.8,229.7L370.8,229.7z
		 M373.3,212.7c-0.9-5-0.3-8.7,1.3-9.7c1.7-1,5.4,0.4,9.3,4c0.2,0.2,0.5,0.5,0.8,0.7c-1.5,1.6-2.9,3.4-4.3,5.5
		c-2.4,0.2-4.6,0.6-6.7,1.1C373.5,213.8,373.3,213.2,373.3,212.7L373.3,212.7z M394.8,218.2c-0.5-0.9-1-1.7-1.5-2.6
		c1.6,0.2,3.1,0.5,4.6,0.8c-0.4,1.4-1,2.9-1.6,4.5C395.8,220,395.3,219.1,394.8,218.2L394.8,218.2z M386,209.4c1,1.1,2,2.3,2.9,3.7
		c-1,0-2-0.1-3-0.1c-1,0-2,0-2.9,0.1C384,211.7,385,210.5,386,209.4L386,209.4z M377.2,218.2c-0.5,0.9-1,1.8-1.4,2.7
		c-0.6-1.5-1.2-3-1.6-4.5c1.4-0.3,2.9-0.6,4.5-0.8C378.2,216.5,377.7,217.3,377.2,218.2L377.2,218.2L377.2,218.2z M378.8,231.4
		c-1.6-0.2-3.2-0.4-4.6-0.8c0.4-1.5,1-3,1.6-4.6c0.4,0.9,0.9,1.8,1.4,2.7h0C377.7,229.7,378.2,230.6,378.8,231.4L378.8,231.4z
		 M386.1,237.7c-1-1.1-2-2.4-3-3.7c1,0,1.9,0.1,2.9,0.1c1,0,2,0,3-0.1C388,235.3,387.1,236.6,386.1,237.7L386.1,237.7z M396.3,226
		c0.7,1.6,1.2,3.1,1.7,4.5c-1.4,0.3-3,0.6-4.7,0.8c0.5-0.9,1-1.7,1.5-2.6C395.3,227.9,395.8,226.9,396.3,226L396.3,226z M393,227.7
		c-0.8,1.4-1.6,2.7-2.4,4c-1.5,0.1-3,0.2-4.6,0.2c-1.6,0-3.1,0-4.5-0.1c-0.8-1.3-1.7-2.6-2.4-4h0c-0.8-1.4-1.5-2.8-2.1-4.2
		c0.6-1.4,1.4-2.8,2.1-4.2l0,0c0.8-1.4,1.6-2.7,2.4-4c1.5-0.1,3-0.2,4.6-0.2h0c1.5,0,3.1,0.1,4.6,0.2c0.8,1.3,1.6,2.6,2.4,4
		c0.8,1.4,1.5,2.8,2.2,4.1C394.5,224.9,393.8,226.3,393,227.7L393,227.7z M397.4,203c1.7,1,2.3,5,1.3,10.3c-0.1,0.3-0.1,0.7-0.2,1
		c-2.1-0.5-4.3-0.9-6.7-1.1c-1.4-2-2.8-3.9-4.2-5.5c0.4-0.4,0.8-0.7,1.1-1.1C392.4,203.4,395.8,202.1,397.4,203L397.4,203z
		 M386,218.8c2.5,0,4.5,2.1,4.5,4.6c0,2.5-2,4.6-4.5,4.6s-4.5-2.1-4.5-4.6C381.5,220.9,383.5,218.8,386,218.8L386,218.8z"/>
</g>
<g>
	<path fill="#1A1A1A" d="M421.2,217.7h4.8c2.5,0,3.8,1.2,3.8,3.6c0,1.8-0.8,3-2.3,3.7l2.8,5.5H427l-2.1-4.8h-0.8v4.8h-2.9V217.7z
		 M424.1,219.8v3.6h0.8c1.1,0,1.6-0.6,1.6-1.9c0-0.6-0.1-1-0.4-1.3s-0.7-0.4-1.3-0.4H424.1z"/>
	<path fill="#1A1A1A" d="M435.2,220.6c1.2,0,2.1,0.3,2.6,1c0.5,0.5,0.8,1.4,0.9,2.7c0,0.5,0.1,1.1,0.1,1.9l-1.3,0.2h-3.7
		c0,0.7,0.1,1.2,0.4,1.6c0.3,0.4,0.7,0.5,1.4,0.5c0.7,0,1.5-0.2,2.5-0.5l0.6,1.7c-1.1,0.6-2.3,1-3.6,1c-2.8,0-4.2-1.7-4.2-5
		c0-1.6,0.4-2.8,1.1-3.7C432.7,221.1,433.8,220.6,435.2,220.6z M435.8,223.2c-0.1-0.3-0.4-0.4-0.8-0.4c-0.4,0-0.7,0.2-0.9,0.5
		c-0.2,0.3-0.3,0.8-0.3,1.4h2.2C436,223.9,435.9,223.4,435.8,223.2z"/>
	<path fill="#1A1A1A" d="M444.3,223.9c0-0.4-0.1-0.7-0.3-0.9c-0.2-0.2-0.5-0.3-1-0.3c-0.5,0-1.3,0.2-2.4,0.5l-0.8-1.7
		c0.4-0.2,1-0.4,1.7-0.6c0.7-0.2,1.4-0.3,2.1-0.3s1.3,0.1,1.8,0.3c0.5,0.2,0.8,0.4,1,0.7s0.3,0.7,0.4,1c0.1,0.3,0.1,0.7,0.1,1.2v3.4
		c0,0.4,0,0.8,0.1,1.1c0.1,0.3,0.3,0.6,0.6,0.9l-1.6,1.5c-0.3-0.1-0.5-0.3-0.8-0.6c-0.3-0.3-0.4-0.5-0.6-0.7h-0.1
		c-0.7,0.9-1.6,1.3-2.6,1.3c-1.7,0-2.6-0.9-2.6-2.7c0-0.9,0.3-1.7,0.8-2.1s1.3-0.8,2.4-1l1.6-0.3V223.9z M442.1,227.7
		c0,0.6,0.3,0.9,0.9,0.9c0.5,0,0.9-0.2,1.2-0.5v-1.7c-0.8,0.1-1.3,0.3-1.7,0.4C442.3,227,442.1,227.3,442.1,227.7z"/>
	<path fill="#1A1A1A" d="M449.5,222c0.8-0.9,1.8-1.4,3.1-1.4s2.2,0.3,2.7,0.9s0.7,1.5,0.7,2.8l-2.6,0.1c0-0.7-0.1-1.2-0.2-1.4
		c-0.1-0.2-0.4-0.3-0.8-0.3s-0.7,0.2-0.9,0.7c-0.2,0.4-0.3,1.2-0.3,2.2s0.1,1.8,0.4,2.2c0.3,0.4,0.8,0.7,1.4,0.7
		c0.7,0,1.5-0.2,2.4-0.5l0.6,1.6c-1,0.7-2.2,1-3.6,1c-2.8,0-4.1-1.6-4.1-4.9C448.4,224.2,448.8,222.9,449.5,222z"/>
	<path fill="#1A1A1A" d="M460.7,220.8h2.4l-0.3,2h-2.1v4.1c0,0.6,0.1,1,0.3,1.3s0.5,0.4,0.9,0.4c0.2,0,0.5-0.1,1-0.2l0.5,1.6
		c-0.2,0.2-0.6,0.3-1.1,0.5c-0.5,0.1-1,0.2-1.4,0.2c-1.2,0-2-0.3-2.3-0.9c-0.4-0.6-0.5-1.6-0.5-3v-4h-1.4l0.3-1.8l1.2-0.2l0.1-1.8
		l2.6-0.8V220.8z"/>
	<path fill="#1A1A1A" d="M465.7,230.6c-1,0-1.5-0.6-1.5-1.7c0-0.4,0.1-0.8,0.4-1.1c0.3-0.3,0.7-0.5,1.3-0.5c1,0,1.5,0.6,1.5,1.7
		c0,0.4-0.1,0.8-0.4,1.1C466.7,230.5,466.3,230.6,465.7,230.6z"/>
	<path fill="#1A1A1A" d="M471.9,230.3c0,0.9-0.2,1.7-0.5,2.1c-0.3,0.5-1,1-2,1.7l-1.5-1.6c0.6-0.4,0.9-0.8,1.1-1.1
		c0.1-0.3,0.2-0.9,0.2-1.8V221l2.8-0.3V230.3z M470.4,220.2c-1,0-1.5-0.6-1.5-1.7c0-0.4,0.1-0.8,0.4-1.1c0.3-0.3,0.7-0.4,1.3-0.4
		c1,0,1.5,0.6,1.5,1.7c0,0.4-0.1,0.8-0.4,1.1C471.4,220.1,471,220.2,470.4,220.2z"/>
	<path fill="#1A1A1A" d="M473.3,223.6c0-0.9,0.3-1.6,1-2.1c0.7-0.5,1.6-0.8,2.6-0.8c1.1,0,1.9,0.2,2.5,0.7c0.6,0.5,0.9,1.2,1,2
		l-2.4,0.5c-0.1-0.8-0.5-1.2-1.2-1.2c-0.3,0-0.5,0.1-0.6,0.2s-0.3,0.3-0.3,0.5s0,0.3,0.1,0.4s0.1,0.2,0.2,0.3
		c0.1,0.1,0.2,0.2,0.3,0.2c0.1,0.1,0.2,0.1,0.4,0.2c0.2,0.1,0.3,0.1,0.4,0.2c0.2,0.1,0.6,0.3,1.2,0.5c0.6,0.2,1.1,0.6,1.5,0.9
		s0.6,0.9,0.6,1.7c0,0.7-0.3,1.4-1,2c-0.7,0.6-1.6,0.9-2.8,0.9s-2.4-0.4-3.6-1.1l1-1.8c1.2,0.5,2.1,0.8,2.6,0.8
		c0.3,0,0.5-0.1,0.7-0.2c0.2-0.1,0.3-0.3,0.3-0.5c0-0.3-0.1-0.5-0.4-0.6c-0.3-0.2-0.5-0.3-0.6-0.3c-1.1-0.4-2-0.9-2.6-1.4
		C473.6,225.1,473.3,224.4,473.3,223.6z"/>
</g>
<g>
	<path fill="#FFFFFF" d="M488,173H367c-9.4,0-17-7.6-17-17v-43c0-9.4,7.6-17,17-17h121c9.4,0,17,7.6,17,17v43
		C505,165.4,497.4,173,488,173z"/>
</g>
<path fill-rule="evenodd" clip-rule="evenodd" d="M359.1,134c0-12.7,10.3-23,23-23c12.7,0,23,10.3,23,23c0,7.9-4,14.9-10.1,19.1
	l-20.8-29.2c-0.4-0.5-1.1-0.8-1.7-0.6c-0.6,0.2-1.1,0.8-1.1,1.5v23h3.1v-18.2l17.9,25c-3.1,1.5-6.5,2.4-10.2,2.4
	C369.4,157,359.1,146.7,359.1,134z M389.8,141.6v-18.4h3.1v18.4H389.8z"/>
<g>
	<path fill="#1A1A1A" d="M426.5,126.7v12.7h-2.8l-2.8-5.7l-0.7-2l-0.1,0l0.4,2.2v5.4h-3v-12.7h2.8l2.6,5.7l0.8,2.2l0.1-0.1l-0.4-2.3
		v-5.5H426.5z"/>
	<path fill="#1A1A1A" d="M432.6,129.6c1.2,0,2.1,0.3,2.6,1c0.5,0.5,0.8,1.4,0.9,2.7c0,0.5,0.1,1.1,0.1,1.9l-1.3,0.2h-3.7
		c0,0.7,0.1,1.2,0.4,1.6c0.3,0.4,0.7,0.5,1.4,0.5c0.7,0,1.5-0.2,2.5-0.5l0.6,1.7c-1.1,0.6-2.3,1-3.6,1c-2.8,0-4.2-1.7-4.2-5
		c0-1.6,0.4-2.8,1.1-3.7C430,130.1,431.1,129.6,432.6,129.6z M433.2,132.2c-0.1-0.3-0.4-0.4-0.8-0.4c-0.4,0-0.7,0.2-0.9,0.5
		s-0.3,0.8-0.3,1.4h2.2C433.4,132.9,433.3,132.4,433.2,132.2z"/>
	<path fill="#1A1A1A" d="M442.5,129.7l2.5,0.3l-2.6,4.4l3,4.9l-2.6,0.3l-1.8-3.3h-0.1l-1.7,3.3l-2.6-0.3l2.9-4.9l-2.7-4.4l2.7-0.3
		l1.4,2.7h0.1L442.5,129.7z"/>
	<path fill="#1A1A1A" d="M449.2,129.8h2.4l-0.3,2h-2.1v4.1c0,0.6,0.1,1,0.3,1.3c0.2,0.2,0.5,0.4,0.9,0.4c0.2,0,0.5-0.1,1-0.2
		l0.5,1.6c-0.2,0.2-0.6,0.3-1.1,0.5c-0.5,0.1-1,0.2-1.4,0.2c-1.2,0-2-0.3-2.3-0.9s-0.5-1.6-0.5-3v-4h-1.4l0.3-1.8l1.2-0.2l0.1-1.8
		l2.6-0.8V129.8z"/>
	<path fill="#1A1A1A" d="M454.3,139.6c-1,0-1.5-0.6-1.5-1.7c0-0.4,0.1-0.8,0.4-1.1c0.3-0.3,0.7-0.4,1.3-0.4c1,0,1.5,0.6,1.5,1.7
		c0,0.4-0.1,0.8-0.4,1.1C455.3,139.5,454.9,139.6,454.3,139.6z"/>
	<path fill="#1A1A1A" d="M460.5,139.3c0,0.9-0.2,1.7-0.5,2.1c-0.3,0.5-1,1-2,1.7l-1.5-1.6c0.6-0.4,0.9-0.8,1.1-1.1s0.2-0.9,0.2-1.8
		V130l2.8-0.3V139.3z M459,129.2c-1,0-1.5-0.6-1.5-1.7c0-0.4,0.1-0.8,0.4-1.1c0.3-0.3,0.7-0.4,1.3-0.4c1,0,1.5,0.6,1.5,1.7
		c0,0.4-0.1,0.8-0.4,1.1C460,129.1,459.6,129.2,459,129.2z"/>
	<path fill="#1A1A1A" d="M461.9,132.6c0-0.9,0.3-1.6,1-2.1c0.7-0.5,1.6-0.8,2.6-0.8c1.1,0,1.9,0.2,2.5,0.7c0.6,0.5,0.9,1.2,1,2
		l-2.4,0.5c-0.1-0.8-0.5-1.2-1.2-1.2c-0.3,0-0.5,0.1-0.6,0.2c-0.2,0.2-0.3,0.3-0.3,0.5c0,0.2,0,0.3,0.1,0.4c0,0.1,0.1,0.2,0.2,0.3
		s0.2,0.2,0.3,0.2c0.1,0.1,0.2,0.1,0.4,0.2c0.2,0.1,0.3,0.1,0.4,0.2c0.2,0.1,0.6,0.3,1.2,0.5c0.6,0.2,1.1,0.6,1.5,0.9
		c0.4,0.4,0.6,0.9,0.6,1.7s-0.3,1.4-1,2c-0.7,0.6-1.6,0.9-2.8,0.9s-2.4-0.4-3.6-1.1l1-1.8c1.2,0.5,2.1,0.8,2.6,0.8
		c0.3,0,0.5-0.1,0.7-0.2c0.2-0.1,0.3-0.3,0.3-0.5c0-0.3-0.1-0.5-0.4-0.6c-0.3-0.2-0.5-0.3-0.6-0.3c-1.1-0.4-2-0.9-2.6-1.4
		C462.1,134.1,461.9,133.4,461.9,132.6z"/>
</g>
<g>
	<path fill="#FFFFFF" d="M485,79H364c-9.4,0-17-7.6-17-17V19c0-9.4,7.6-17,17-17h121c9.4,0,17,7.6,17,17v43
		C502,71.4,494.4,79,485,79z"/>
</g>
<g>
	<path fill="#EE513B" d="M359.1,43c-1.3-1.3-1.3-3.4,0-4.6l19.7-19.7c1.3-1.3,3.4-1.3,4.6,0l19.7,19.7c1.3,1.3,1.3,3.4,0,4.6
		l-19.7,19.7c-1.3,1.3-3.4,1.3-4.6,0L359.1,43z"/>
	<path fill="#FFFFFF" d="M374.8,22.8l-2,2l5.2,5.2c-0.2,0.4-0.3,0.9-0.3,1.5c0,1.5,0.9,2.8,2.3,3.3v12.6c-1.3,0.5-2.3,1.8-2.3,3.3
		c0,1.9,1.6,3.5,3.5,3.5c1.9,0,3.5-1.6,3.5-3.5c0-1.4-0.8-2.5-1.9-3.1V34.7l4.9,4.9c-0.2,0.4-0.3,0.9-0.3,1.4c0,1.9,1.6,3.5,3.5,3.5
		s3.5-1.6,3.5-3.5s-1.6-3.5-3.5-3.5c-0.4,0-0.7,0.1-1.1,0.2l-5.3-5.3c0.1-0.3,0.2-0.7,0.2-1c0-1.9-1.6-3.5-3.5-3.5
		c-0.4,0-0.7,0.1-1,0.2L374.8,22.8z"/>
</g>
<g>
	<path fill="#1A1A1A" d="M413.7,36c0.9-1.2,2.1-1.8,3.7-1.8s2.7,0.4,3.3,1.1s0.9,1.8,0.9,3.2l-2.9,0.2c0-0.8-0.1-1.4-0.3-1.7
		c-0.2-0.3-0.5-0.4-1-0.4s-0.8,0.1-1.1,0.3c-0.3,0.2-0.4,0.6-0.6,1c-0.2,0.8-0.3,1.8-0.3,3.2c0,1.4,0.2,2.4,0.6,3.1s1,0.9,1.8,0.9
		c0.4,0,0.8,0,1.1-0.1v-2.1h-1.7l0.3-2.1h4.2v5.6c-0.7,0.3-1.4,0.6-2.1,0.8c-0.7,0.2-1.4,0.3-2.3,0.3c-0.9,0-1.6-0.1-2.3-0.4
		c-0.6-0.3-1.1-0.6-1.5-1s-0.6-0.9-0.8-1.6c-0.2-0.7-0.3-1.2-0.4-1.8c0-0.5-0.1-1.2-0.1-1.9C412.4,38.8,412.8,37.2,413.7,36z"/>
	<path fill="#1A1A1A" d="M424.7,36.9c-1,0-1.5-0.6-1.5-1.7c0-0.4,0.1-0.8,0.4-1.1c0.3-0.3,0.7-0.4,1.3-0.4c1,0,1.5,0.6,1.5,1.7
		c0,0.4-0.1,0.8-0.4,1.1C425.7,36.8,425.3,36.9,424.7,36.9z M426.2,47.2h-2.8v-9.4l2.8-0.3V47.2z"/>
	<path fill="#1A1A1A" d="M431.2,37.5h2.4l-0.3,2h-2.1v4.1c0,0.6,0.1,1,0.3,1.3c0.2,0.2,0.5,0.4,0.9,0.4c0.2,0,0.5-0.1,1-0.2l0.5,1.6
		c-0.2,0.2-0.6,0.3-1.1,0.5s-1,0.2-1.4,0.2c-1.2,0-2-0.3-2.3-0.9s-0.5-1.6-0.5-3v-4H427l0.3-1.8l1.2-0.2l0.1-1.8l2.6-0.8V37.5z"/>
</g>
</svg>
